<?xml version="1.0" encoding="UTF-8" standalone="no"?>
    <svg xmlns:dc="http://purl.org/dc/elements/1.1/" xmlns:cc="http://creativecommons.org/ns#" xmlns:rdf="http://www.w3.org/1999/02/22-rdf-syntax-ns#" xmlns:svg="http://www.w3.org/2000/svg" xmlns="http://www.w3.org/2000/svg" viewBox="0 0 562.5 562.5" height="562.5" width="562.5" xml:space="preserve" version="1.1" id="svg4162">
        <g transform="matrix(1.25,0,0,-1.25,0,562.5)" id="g4170">
            <g transform="scale(0.1,0.1)" id="g4172">
                <path id="path4182" d="m 940.33398,1068.0273 c -61.82591,0.8804 -124.39923,-0.8794 -185.13088,11.3428 -48.1667,13.2141 -93.87356,35.6706 -135.05857,64.0205 -70.44619,49.5449 -124.44447,120.506 -158.2235,199.522 -39.30093,89.5635 -58.2529,186.8399 -67.74105,283.7846 -8.65776,100.2597 -7.14382,201.1064 -6.80431,301.7082 1.74531,148.8435 9.63098,297.5164 14.61456,446.2645 -0.37893,58.2782 -3.2814,116.4793 -4.30281,174.7434 -4.23032,158.25 -9.40322,316.4927 -12.29139,474.767 4.35706,55.1792 44.47151,103.15 94.72875,123.9415 61.61768,26.6275 138.83976,16.8401 189.70725,-27.9753 3.34819,-4.5619 10.75073,-10.2345 15.94141,-5.2129 3.78816,4.7129 1.03258,11.5745 1.66433,17.1512 -1.46328,49.974 -4.04544,100.0151 -3.13894,150.0636 7.33968,58.6634 54.24891,107.2377 109.71712,124.4639 61.13423,20.1273 133.27227,5.7343 179.99186,-38.9521 2.99622,-1.9838 6.74269,-9.0256 10.84375,-5.4551 1.5949,5.1997 -0.36303,11.0585 0.97551,16.4734 5.28535,53.6175 43.81503,100.7716 93.15923,120.7219 63.8491,27.7162 144.0967,16.5549 195.2578,-31.5684 31.6548,-29.2654 48.9344,-72.7947 46.343,-115.5852 0.9088,-34.9377 1.8152,-69.8755 2.7254,-104.8132 37.1082,47.1478 99.8544,70.195 158.6167,64.0822 57.4719,-5.1422 113.1656,-40.031 136.9649,-93.6655 9.88,-21.4639 12.4968,-45.356 11.9653,-68.7443 9.138,-339.4292 17.8472,-678.8697 26.8222,-1018.3033 76.1365,96.1376 150.3329,193.8186 227.6134,289.038 35.5121,39.0657 89.4358,59.4122 141.542,56.0335 56.7526,-2.8368 113.7903,-33.3417 140.5009,-84.6301 19.033,-35.6725 22.249,-80.4478 4.8346,-117.5112 -10.8135,-23.8446 -24.5194,-46.3412 -35.5694,-70.144 -86.9353,-172.4593 -174.9983,-344.3775 -258.2657,-518.646 -48.3923,-102.928 -94.8056,-207.8536 -161.0854,-300.8257 -32.7578,-42.7616 -70.677,-81.1296 -106.3529,-121.3873 -54.6623,-58.8522 -115.8604,-114.5609 -190.4533,-146.6193 -75.2753,-33.1202 -158.2976,-43.333 -239.9074,-44.2076 -80.0488,-2.1505 -160.1201,-4.2458 -240.20442,-3.8757 z m 5.58399,54.5508 c 100.60213,0.6772 201.27883,1.4866 301.73233,7.3538 76.7617,6.7883 154.0787,29.0312 216.418,75.6967 69.688,50.4992 123.3411,118.7034 181.1672,181.557 41.3833,47.7174 71.1644,103.907 100.6646,159.3636 49.9089,96.4628 91.9449,196.7554 141.7838,293.2613 72.176,144.7953 144.1422,289.7183 218.2868,433.5106 11.9486,19.9307 20.4308,43.3936 16.3173,66.8831 -5.3871,35.869 -34.6185,64.7118 -68.4306,75.4755 -43.9717,14.7874 -96.9802,1.3664 -126.0525,-35.5163 -39.2257,-47.4337 -76.0835,-96.7729 -114.3635,-144.9633 -53.9176,-68.3427 -106.8226,-137.4889 -161.5846,-205.1593 -10.464,-13.2893 -32.5283,-11.8871 -44.2181,-0.9002 -10.4654,10.0274 -8.0563,25.5538 -8.6459,38.668 -0.047,27.1976 -1.786,54.3644 -2.1204,81.5697 -9.1243,341.4553 -17.4041,682.9472 -27.2794,1024.3738 -5.2798,41.6629 -42.0515,74.4184 -82.3907,81.6296 -44.2496,9.3145 -95.1003,-8.2226 -119.1964,-47.6532 -12.7935,-20.6154 -13.2994,-45.8977 -11.2654,-69.333 4.8107,-228.1846 10.7541,-456.3749 14.779,-684.5576 -3.3611,-17.3439 -23.108,-26.3066 -39.3613,-22.6055 -17.619,1.7795 -37.2595,8.5147 -46.4434,24.8028 -5.7456,17.1052 -1.2764,35.3747 -3.5397,52.9595 -7.7911,289.1028 -14.3828,578.2549 -23.0204,867.3244 -5.7324,41.8297 -42.989,74.4822 -83.6655,81.2432 -43.8507,8.6848 -93.8774,-8.8894 -117.704,-47.8533 -12.7594,-20.5749 -13.2573,-45.8048 -11.2101,-69.1885 6.2506,-286.373 13.5879,-572.7495 19.0811,-859.1221 -3.0338,-16.0909 -20.6055,-24.5353 -35.6757,-24.6367 -16.892,-2.0066 -37.68513,-0.3115 -48.34573,14.7949 -7.73845,14.8739 -2.97584,32.0893 -4.88633,48.0553 -6.7775,253.1013 -12.27771,506.2551 -19.98281,759.3201 -5.53675,39.6485 -40.09578,70.6357 -78.23957,78.8421 -46.24981,11.3644 -100.43542,-8.0291 -124.13348,-50.4733 -11.62374,-20.282 -11.91478,-44.4993 -9.84062,-67.1314 7.3307,-276.6487 15.14769,-553.2846 22.11601,-829.9428 -3.6443,-23.4598 -26.73229,-39.2055 -49.18359,-41.5625 -14.65634,-3.1255 -33.87552,1.4893 -39.70899,16.8222 -5.1169,16.6371 -1.22958,34.2317 -3.21061,51.2701 -5.40961,196.6367 -9.31176,393.3382 -15.84384,589.9295 -6.22315,40.5211 -42.25669,71.8007 -81.58609,79.091 -45.45115,9.7708 -97.73023,-9.5341 -121.10165,-50.8238 -12.65682,-22.0651 -11.58118,-48.5109 -9.94354,-73.0217 5.26337,-206.3616 12.11587,-412.6944 16.22134,-619.0782 -9.05989,-226.8116 -20.96074,-453.9296 -11.7076,-680.9357 5.79083,-106.3173 23.75028,-213.1024 64.2842,-312.0123 30.32182,-72.5474 77.61159,-139.8272 143.30951,-184.3597 35.81386,-24.5517 75.67551,-43.7591 117.85786,-54.3577 37.83039,-7.2898 76.6023,-6.9284 114.969,-7.992 18.29659,-0.3137 36.59538,-0.4772 54.894,-0.6177 z" style="fill:#171717;fill-opacity:1;fill-rule:nonzero;stroke:none" />
                <path id="path4184" d="m 3534.1758,1068.7012 c -95.7886,0.9982 -191.772,1.1135 -287.3219,7.1853 -86.9208,7.8659 -174.0901,34.0118 -244.7781,86.588 -74.6383,54.1466 -133.2651,126.1824 -194.8167,194.0391 -52.0453,61.6385 -89.0974,134.2594 -125.4159,205.9349 -44.7116,90.7197 -85.7543,183.2167 -132.2998,273.0335 -73.1712,145.2238 -146.0669,290.618 -220.975,434.9496 -21.9137,48.5022 -11.7594,109.0771 24.8092,147.861 45.5881,50.7818 122.159,68.5524 186.2943,47.5277 36.9096,-11.632 69.4483,-35.9555 91.9829,-67.4669 70.7764,-89.3666 141.1113,-179.0812 211.7261,-268.5761 8.4275,349.0018 15.744,698.0385 24.8739,1047.0182 5.2159,51.2984 42.1993,96.9297 88.7595,118.0637 63.2453,29.6871 143.6776,20.5502 196.472,-26.1502 4.0352,-5.085 11.2108,-10.8099 17.7442,-6.3145 6.2659,5.3165 2.838,14.5832 4.2428,21.6342 1.6207,36.7758 -0.8862,73.8557 5.0174,110.2304 11.3733,51.9154 53.5684,93.0806 102.6972,110.0481 64.0241,22.5929 141.5088,7.9058 189.4078,-41.7056 26.972,-28.0559 41.7368,-67.0962 39.7227,-105.6856 48.6442,56.4314 134.1182,74.8072 202.3945,46.8301 49.4177,-19.4225 90.7406,-64.1572 98.2766,-117.6136 3.2251,-32.7253 -1.27,-65.9807 -0.7165,-99.013 -0.6641,-27.7287 -1.3322,-55.4572 -1.9937,-83.1859 51.6211,61.0477 145.3975,77.7783 216.2109,42.3184 48.2253,-23.2168 86.0782,-72.3913 86.7051,-126.9571 0.6403,-34.3729 -2.1267,-68.8464 -2.0434,-103.3028 -4.181,-183.5867 -9.8082,-367.1531 -12.7654,-550.7597 9.7885,-228.1 22.5929,-456.4973 13.4995,-684.8312 -5.9687,-112.2325 -24.3079,-225.1747 -67.7468,-329.4136 -32.7894,-77.4933 -82.9972,-149.1761 -151.3737,-199.2165 -45.2643,-33.5201 -96.6249,-59.2542 -151.3304,-72.676 -59.1307,-10.8783 -119.3963,-8.8217 -179.2691,-10.3515 -9.3299,-0.054 -18.6601,-0.058 -27.9902,-0.042 z m 8.0879,54.6797 c 63.1178,1.1623 126.8609,-1.3574 189.2888,9.6604 37.3405,10.2557 72.6064,27.3719 105.2665,48.0015 63.3692,41.4004 112.2784,102.8032 142.9926,171.6454 37.8292,81.9741 55.9716,171.4783 66.5705,260.6664 9.7601,95.496 8.031,191.6491 7.8981,287.5023 -1.6042,158.3765 -10.2786,316.5598 -16.2056,474.7993 0.1251,56.742 2.8878,113.438 3.6763,170.1716 3.7655,159.3047 8.4585,318.6116 11.0481,477.929 -4.1502,40.8016 -38.7696,73.8189 -77.7835,82.7152 -45.349,11.7678 -98.7671,-5.7151 -123.8417,-46.3939 -13.9928,-22.4713 -13.178,-50.0357 -13.1011,-75.5156 -4.7854,-197.8053 -8.4455,-395.6649 -14.0454,-593.4336 -3.9864,-16.8405 -23.8429,-25.1661 -39.6933,-21.207 -21.4526,2.0504 -44.1292,15.4711 -49.8887,37.4961 -2.911,18.2531 1.1295,36.6326 0.1361,55.0142 6.3492,270.871 13.3599,541.7295 19.1959,812.6108 -4.159,41.944 -40.308,75.7336 -80.5039,84 -45.7257,10.8442 -99.056,-8.1903 -122.6953,-49.9453 -14.5273,-26.0719 -10.0073,-57.1651 -11.4557,-85.7138 -5.9323,-247.867 -10.5335,-495.8001 -17.4525,-743.6222 -4.4665,-16.7615 -23.4251,-23.5449 -39.2988,-22.8457 -15.9613,-0.7063 -35.7338,2.0732 -45.0352,17.0313 -6.9172,14.8928 -1.4651,31.3959 -2.6462,47.1164 5.5059,284.4793 11.6159,568.9493 16.6521,853.4363 -3.7386,40.3733 -38.0268,73.0503 -76.5449,81.7969 -45.2688,11.965 -98.78,-5.0282 -124.1914,-45.5 -13.7633,-21.6103 -14.1875,-48.2431 -13.7135,-73.0143 -7.0045,-292.2636 -12.8974,-584.5888 -20.6869,-876.8119 -4.6209,-17.1897 -23.1899,-24.6895 -38.8692,-28.5273 -15.2821,-3.8546 -35.1144,-2.8397 -44.7617,11.5019 -8.3256,13.5866 -2.6481,29.8631 -3.7867,44.7497 4.2296,228.002 9.3354,455.9914 12.8629,684.0042 -4.2908,40.3963 -38.9472,72.7551 -77.6289,81.1797 -45.0791,11.4388 -98.0437,-5.6419 -123.2637,-45.8555 -13.6952,-21.545 -14.0876,-48.082 -13.631,-72.7642 -8.5982,-364.137 -16.7259,-728.2852 -25.6932,-1092.4135 -3.6953,-22.8501 -37.3267,-31.6142 -52.0797,-13.939 -12.3703,12.8321 -21.4532,28.3125 -33.3674,41.5842 -82.1379,103.6501 -162.8657,208.4313 -246.1584,311.1536 -23.4431,27.8364 -61.2926,41.1135 -97.1125,37.3917 -37.5568,-3.2785 -75.18,-25.8177 -89.2541,-61.8638 -10.2191,-25.8228 -7.4058,-56.479 8.1528,-79.6031 75.2797,-145.6027 148.665,-292.1688 222.3786,-438.5692 38.3856,-76.5533 74.8725,-154.0679 111.6354,-231.4181 33.0197,-67.6584 67.6406,-135.0839 111.9812,-196.1436 31.0246,-39.7228 66.7206,-75.4616 100.0661,-113.1554 50.0749,-53.907 105.8527,-105.5254 174.5929,-134.3138 66.5336,-28.5177 139.7169,-36.2536 211.4578,-37.1768 72.8309,-1.7325 145.6839,-3.2813 218.5374,-3.4115 z" style="fill:#171717;fill-opacity:1;fill-rule:nonzero;stroke:none" />
                <path id="clickarea1" d="m 2574.1526,2402.5424 300.3177,-362.2882 -243.1144,-324.1525 -271.7161,557.733 0,128.7077 119.1738,47.6694 z" style="fill:none; stroke:none;" />
                <path id="clickarea2" d="m 3170.0212,2459.7458 9.5339,724.5762 -109.6398,100.106 -114.4068,-23.8348 -71.5043,-119.1737 0,-1086.8644 z" style="fill:none; stroke:none;" />
                <path id="clickarea3" d="m 3465.572,2483.5805 23.8348,858.0509 -61.9703,133.4745 -90.5721,9.5339 -104.8729,-57.2033 -28.6017,-138.2416 -23.8347,-834.2161 z" style="fill:none; stroke:none;" />
                <path id="clickarea4" d="m 3780.1907,2416.8432 9.5339,762.7119 -28.6017,171.6102 -109.6399,47.6694 -119.1736,-57.2033 -42.9026,-858.0509 z" style="fill:none; stroke:none;" />
                <path id="clickarea5" d="m 3804.0254,2407.3094 14.3008,643.538 71.5043,76.2712 100.106,14.3009 76.2711,-76.2712 -4.7669,-710.2754 z" style="fill:none; stroke:none;" />
                <path id="clickarea6" d="m 1925.8474,2395.392 -300.3177,-362.2882 243.1144,-324.1525 271.7161,557.733 0,128.7077 -119.1738,47.6694 z" style="fill:none; stroke:none;" />
                <path id="clickarea7" d="m 1329.9788,2452.5954 -9.5338,724.5762 109.6397,100.106 114.4068,-23.8348 71.5043,-119.1737 0,-1086.8644 z" style="fill:none; stroke:none;" />
                <path id="clickarea8" d="m 1034.428,2476.4301 -23.8348,858.0509 61.9703,133.4745 90.5721,9.5339 104.873,-57.2033 28.6016,-138.2416 23.8348,-834.2161 z" style="fill:none; stroke:none;" />
                <path id="clickarea9" d="m 719.80931,2409.6928 -9.5339,762.7119 28.6017,171.6102 109.6399,47.6694 119.1736,-57.2033 42.90259,-858.0509 z" style="fill:none; stroke:none;" />
                <path id="clickarea10" d="m 695.97461,2400.159 -14.3008,643.538 -71.5043,76.2712 -100.106,14.3009 -76.2711,-76.2712 4.7669,-710.2754 z" style="fill:none; stroke:none;" />
                <circle class="finger-not-selected" cx="2488.3474" cy="-2307.2031" r="152.54237" transform="scale(1,-1)" id="finger1" />
                <circle class="finger-not-selected" transform="scale(1,-1)" cx="3031.7795" cy="-3141.4197" r="152.54237" id="finger2" />
                <circle class="finger-not-selected" transform="scale(1,-1)" cx="3346.3982" cy="-3346.3982" r="152.54237" id="finger3" />
                <circle class="finger-not-selected" transform="scale(1,-1)" cx="3651.4829" cy="-3246.2925" r="152.54237" id="finger4" />
                <circle class="finger-not-selected" transform="scale(1,-1)" cx="3947.0337" cy="-2984.1101" r="152.54237" id="finger5" />
                <circle class="finger-not-selected" transform="scale(-1,-1)" cx="-2006.8853" cy="-2302.4365" r="152.54237" id="finger6" />
                <circle class="finger-not-selected" transform="scale(-1,-1)" cx="-1463.4531" cy="-3136.6528" r="152.54237" id="finger7" />
                <circle class="finger-not-selected" transform="scale(-1,-1)" cx="-1148.8345" cy="-3341.6313" r="152.54237" id="finger8" />
                <circle class="finger-not-selected" transform="scale(-1,-1)" cx="-843.75" cy="-3241.5259" r="152.54237" id="finger9" />
                <circle class="finger-not-selected" transform="scale(-1,-1)" cx="-548.19922" cy="-2979.3433" r="152.54237" id="finger10" />
            </g>
        </g>
    </svg>
